<svg width="171.01786499023436px" height="121.48572082519532px" xmlns="http://www.w3.org/2000/svg" viewBox="164.49106750488284 14.257139587402342 171.01786499023436 121.48572082519532" style="background: rgba(0, 0, 0, 0);" preserveAspectRatio="xMidYMid"><defs><linearGradient id="editing-sticker-gradient" x1="0.5" y1="0.2" x2="0.5" y2="0.8"><stop offset="0" stop-color="#fd9"></stop><stop offset="1" stop-color="#9df"></stop></linearGradient><filter id="editing-sticker" x="-100%" y="-100%" width="300%" height="300%"><feMorphology operator="erode" radius="1" in="SourceAlpha" result="alpha-erode"></feMorphology><feConvolveMatrix order="3,3" divisor="1" kernelMatrix="0 1 0 1 1 1 0 1 0" in="alpha-erode" result="alpha-round"></feConvolveMatrix><feMorphology operator="dilate" radius="3.5" in="alpha-round" result="dilate-shadow"></feMorphology><feGaussianBlur in="dilate-shadow" stdDeviation="1.5" result="shadow"></feGaussianBlur><feFlood flood-color="#fff" result="flood-sticker"></feFlood><feComposite operator="in" in="flood-sticker" in2="alpha-round" result="comp-sticker"></feComposite><feMorphology operator="dilate" radius="3" in="comp-sticker" result="morph-sticker"></feMorphology><feConvolveMatrix order="3,3" divisor="1" kernelMatrix="0 1 0 1 1 1 0 1 0" in="morph-sticker" result="sticker"></feConvolveMatrix><feMerge><feMergeNode in="shadow"></feMergeNode><feMergeNode in="sticker"></feMergeNode><feMergeNode in="SourceGraphic"></feMergeNode></feMerge></filter></defs><g filter="url(#editing-sticker)"><g transform="translate(194.73498338460922, 98.99999237060547)"><path d="M27.84-9.86L27.84-9.86L27.84-9.86Q29.06-8.32 29.06-5.34L29.06-5.34L29.06-5.34Q29.06-2.37 26.78-0.54L26.78-0.54L26.78-0.54Q24.51 1.28 20.54 1.28L20.54 1.28L20.54 1.28Q18.24 1.28 14.66 0.77L14.66 0.77L14.66 0.77Q7.62-0.32 5.60-0.32L5.60-0.32L5.60-0.32Q3.58-0.32 2.75-0.22L2.75-0.22L2.75-0.22Q1.92-0.13 0.58 0L0.58 0L8.32-42.24L22.34-42.24L15.94-7.04L15.94-7.04Q16.77-6.91 17.54-6.91L17.54-6.91L19.14-6.91L19.14-6.91Q24.51-6.91 27.84-9.86ZM48.70-3.52L48.70-3.52L48.70-3.52Q46.72 1.28 40.38 1.28L40.38 1.28L40.38 1.28Q37.12 1.28 35.07-0.96L35.07-0.96L35.07-0.96Q33.34-2.94 33.34-4.93L33.34-4.93L33.34-4.93Q33.34-10.11 35.71-20.22L35.71-20.22L38.08-32.64L51.07-33.92L47.17-13.70L47.17-13.70Q46.08-8.96 46.08-7.30L46.08-7.30L46.08-7.30Q46.08-3.65 48.70-3.52ZM39.23-41.54L39.23-41.54L39.23-41.54Q39.23-44.03 41.31-45.38L41.31-45.38L41.31-45.38Q43.39-46.72 46.40-46.72L46.40-46.72L46.40-46.72Q49.41-46.72 51.23-45.38L51.23-45.38L51.23-45.38Q53.06-44.03 53.06-41.54L53.06-41.54L53.06-41.54Q53.06-39.04 51.04-37.76L51.04-37.76L51.04-37.76Q49.02-36.48 46.02-36.48L46.02-36.48L46.02-36.48Q43.01-36.48 41.12-37.76L41.12-37.76L41.12-37.76Q39.23-39.04 39.23-41.54ZM79.10-37.12L79.10-37.12L79.10-37.12Q80-38.66 80-40.32L80-40.32L80-40.32Q80-43.26 78.21-43.26L78.21-43.26L78.21-43.26Q75.46-43.26 74.30-37.63L74.30-37.63L73.34-32.64L79.17-32.64L78.78-29.76L72.77-29.76L67.01 0L54.08 1.28L60.22-29.76L55.68-29.76L56.26-32.64L60.74-32.64L62.08-37.70L62.08-37.70Q63.23-42.37 68.16-44.54L68.16-44.54L68.16-44.54Q71.74-46.08 77.76-46.08L77.76-46.08L77.76-46.08Q83.78-46.08 86.46-44.54L86.46-44.54L86.46-44.54Q89.15-43.01 89.15-40.96L89.15-40.96L89.15-40.96Q89.15-38.91 87.55-37.63L87.55-37.63L87.55-37.63Q85.95-36.35 84.16-36.35L84.16-36.35L84.16-36.35Q80.64-36.35 79.10-37.12ZM104.00-10.82L104.00-10.82L104.00-10.82Q105.60-9.73 105.60-7.33L105.60-7.33L105.60-7.33Q105.60-4.93 104.38-3.39L104.38-3.39L104.38-3.39Q103.17-1.86 101.18-0.83L101.18-0.83L101.18-0.83Q97.09 1.28 92.67 1.28L92.67 1.28L92.67 1.28Q88.26 1.28 85.66 0.32L85.66 0.32L85.66 0.32Q83.07-0.64 81.34-2.43L81.34-2.43L81.34-2.43Q77.95-5.82 77.95-12.03L77.95-12.03L77.95-12.03Q77.95-21.70 83.20-27.58L83.20-27.58L83.20-27.58Q88.83-33.92 98.62-33.92L98.62-33.92L98.62-33.92Q104.70-33.92 107.71-31.36L107.71-31.36L107.71-31.36Q109.95-29.44 109.95-26.30L109.95-26.30L109.95-26.30Q109.95-15.04 90.50-15.04L90.50-15.04L90.50-15.04Q90.24-13.38 90.24-11.97L90.24-11.97L90.24-11.97Q90.24-9.02 91.55-7.90L91.55-7.90L91.55-7.90Q92.86-6.78 95.30-6.78L95.30-6.78L95.30-6.78Q97.73-6.78 100.32-7.90L100.32-7.90L100.32-7.90Q102.91-9.02 104.00-10.82ZM90.94-17.79L90.94-17.79L90.94-17.79Q95.49-17.79 98.11-20.61L98.11-20.61L98.11-20.61Q100.74-23.30 100.74-27.58L100.74-27.58L100.74-27.58Q100.74-29.06 100.19-29.86L100.19-29.86L100.19-29.86Q99.65-30.66 98.56-30.66L98.56-30.66L98.56-30.66Q97.47-30.66 96.54-30.24L96.54-30.24L96.54-30.24Q95.62-29.82 94.66-28.42L94.66-28.42L94.66-28.42Q92.29-25.22 90.94-17.79Z" fill="url(#editing-sticker-gradient)" stroke="#000" stroke-width="2.5"></path></g></g><style>text {
  font-size: 64px;
  font-family: Arial Black;
  dominant-baseline: central;
  text-anchor: middle;
}</style></svg>