<svg width="384.1678833007812px" height="121.48572082519532px" xmlns="http://www.w3.org/2000/svg" viewBox="57.916058349609386 14.257139587402342 384.1678833007812 121.48572082519532" style="background: rgba(0, 0, 0, 0);" preserveAspectRatio="xMidYMid"><defs><linearGradient id="editing-sticker-gradient" x1="0.5" y1="0.2" x2="0.5" y2="0.8"><stop offset="0" stop-color="#fd9"></stop><stop offset="1" stop-color="#9df"></stop></linearGradient><filter id="editing-sticker" x="-100%" y="-100%" width="300%" height="300%"><feMorphology operator="erode" radius="1" in="SourceAlpha" result="alpha-erode"></feMorphology><feConvolveMatrix order="3,3" divisor="1" kernelMatrix="0 1 0 1 1 1 0 1 0" in="alpha-erode" result="alpha-round"></feConvolveMatrix><feMorphology operator="dilate" radius="3.5" in="alpha-round" result="dilate-shadow"></feMorphology><feGaussianBlur in="dilate-shadow" stdDeviation="1.5" result="shadow"></feGaussianBlur><feFlood flood-color="#fff" result="flood-sticker"></feFlood><feComposite operator="in" in="flood-sticker" in2="alpha-round" result="comp-sticker"></feComposite><feMorphology operator="dilate" radius="3" in="comp-sticker" result="morph-sticker"></feMorphology><feConvolveMatrix order="3,3" divisor="1" kernelMatrix="0 1 0 1 1 1 0 1 0" in="morph-sticker" result="sticker"></feConvolveMatrix><feMerge><feMergeNode in="shadow"></feMergeNode><feMergeNode in="sticker"></feMergeNode><feMergeNode in="SourceGraphic"></feMergeNode></feMerge></filter></defs><g filter="url(#editing-sticker)"><g transform="translate(115.50496983528137, 104.43999290466309)"><path d="M2.30-9.47L2.30-9.47L2.30-9.47Q2.30-11.97 2.94-15.17L2.94-15.17L8.13-42.24L22.27-42.24L17.15-14.98L17.15-14.98Q16.58-11.97 16.58-9.76L16.58-9.76L16.58-9.76Q16.58-7.55 17.50-6.40L17.50-6.40L17.50-6.40Q18.43-5.25 20.16-5.25L20.16-5.25L20.16-5.25Q21.89-5.25 22.98-5.70L22.98-5.70L22.98-5.70Q24.06-6.14 24.96-7.23L24.96-7.23L24.96-7.23Q26.69-9.41 27.78-14.98L27.78-14.98L32.96-42.24L42.62-42.24L37.50-15.04L37.50-15.04Q35.71-5.95 30.78-2.30L30.78-2.30L30.78-2.30Q25.98 1.28 16.51 1.28L16.51 1.28L16.51 1.28Q9.41 1.28 5.63-1.79L5.63-1.79L5.63-1.79Q2.30-4.48 2.30-9.47ZM73.73-4.38L73.73-4.38L73.73-4.38Q71.04-1.66 67.36-0.19L67.36-0.19L67.36-0.19Q63.68 1.28 60.03 1.28L60.03 1.28L60.03 1.28Q56.38 1.28 55.10 0.64L55.10 0.64L53.12 11.52L40.13 12.80L48.96-32.64L59.39-33.73L58.56-29.31L58.56-29.31Q61.25-33.86 66.82-33.86L66.82-33.86L66.82-33.86Q73.09-33.86 76.42-29.82L76.42-29.82L76.42-29.82Q79.36-26.18 79.36-20.61L79.36-20.61L79.36-20.61Q79.36-15.04 77.89-11.07L77.89-11.07L77.89-11.07Q76.42-7.10 73.73-4.38ZM59.26-22.34L55.87-3.58L55.87-3.58Q57.22-2.43 58.88-2.43L58.88-2.43L58.88-2.43Q60.54-2.43 61.50-3.07L61.50-3.07L61.50-3.07Q62.46-3.71 63.17-4.99L63.17-4.99L63.17-4.99Q65.09-8.45 66.62-18.94L66.62-18.94L66.62-18.94Q67.07-22.02 67.07-25.02L67.07-25.02L67.07-25.02Q67.07-28.03 66.40-28.99L66.40-28.99L66.40-28.99Q65.73-29.95 64.45-29.95L64.45-29.95L64.45-29.95Q60.54-29.95 59.26-22.34L59.26-22.34ZM87.74-26.75L87.74-26.75L87.74-26.75Q89.92-29.82 93.22-31.87L93.22-31.87L93.22-31.87Q96.51-33.92 100.54-33.92L100.54-33.92L100.54-33.92Q104.58-33.92 106.50-32.64L106.50-32.64L119.04-33.92L114.69-9.34L114.69-9.34Q112.45 3.20 107.71 8.13L107.71 8.13L107.71 8.13Q103.17 12.80 94.34 12.80L94.34 12.80L94.34 12.80Q87.62 12.80 83.78 10.69L83.78 10.69L83.78 10.69Q79.94 8.58 79.94 5.06L79.94 5.06L79.94 5.06Q79.94 2.43 81.92 0.93L81.92 0.93L81.92 0.93Q83.90-0.58 86.98-0.58L86.98-0.58L86.98-0.58Q89.66-0.58 91.71 0.64L91.71 0.64L91.71 0.64Q92.93 1.28 93.50 2.18L93.50 2.18L93.50 2.18Q92.03 3.46 92.03 5.57L92.03 5.57L92.03 5.57Q92.03 8.32 94.59 8.32L94.59 8.32L94.59 8.32Q98.88 8.32 101.31-1.79L101.31-1.79L101.31-1.79Q102.02-4.54 102.59-7.30L102.59-7.30L102.59-7.30Q99.71-3.78 93.18-3.78L93.18-3.78L93.18-3.78Q88.64-3.78 86.02-5.95L86.02-5.95L86.02-5.95Q83.39-8.13 83.39-13.25L83.39-13.25L83.39-13.25Q83.39-16.45 84.48-20.06L84.48-20.06L84.48-20.06Q85.57-23.68 87.74-26.75ZM96.06-13.06L96.06-13.06L96.06-13.06Q96.06-8.70 98.30-8.70L98.30-8.70L98.30-8.70Q99.84-8.70 101.31-10.37L101.31-10.37L101.31-10.37Q102.46-11.71 102.91-13.70L102.91-13.70L106.18-30.14L106.18-30.14Q105.86-30.21 105.54-30.34L105.54-30.34L105.54-30.34Q104.90-30.59 104.06-30.59L104.06-30.59L104.06-30.59Q100.16-30.59 97.86-24.19L97.86-24.19L97.86-24.19Q96.06-19.20 96.06-13.06ZM141.57-17.98L141.57-17.98L141.57-17.98Q143.87-22.08 143.87-26.24L143.87-26.24L143.87-26.24Q143.87-28.99 141.89-28.99L141.89-28.99L141.89-28.99Q140.35-28.99 138.75-26.37L138.75-26.37L138.75-26.37Q137.09-23.74 136.58-20.35L136.58-20.35L133.25 0L120 1.28L126.53-32.64L137.09-33.92L135.94-27.46L135.94-27.46Q139.07-33.92 146.11-33.92L146.11-33.92L146.11-33.92Q149.82-33.92 151.84-32L151.84-32L151.84-32Q153.86-30.08 153.86-26.14L153.86-26.14L153.86-26.14Q153.86-22.21 151.26-19.71L151.26-19.71L151.26-19.71Q148.67-17.22 144.26-17.22L144.26-17.22L144.26-17.22Q142.34-17.22 141.57-17.98ZM157.66-1.92L157.66-1.92L157.66-1.92Q156.16-3.58 155.49-6.21L155.49-6.21L155.49-6.21Q154.82-8.83 154.82-13.12L154.82-13.12L154.82-13.12Q154.82-17.41 156.29-21.31L156.29-21.31L156.29-21.31Q157.76-25.22 160.45-28.03L160.45-28.03L160.45-28.03Q165.95-33.92 175.04-33.92L175.04-33.92L175.04-33.92Q178.30-33.92 180.67-32.83L180.67-32.83L191.62-33.92L186.88-8.96L186.88-8.96Q186.69-8.19 186.69-6.78L186.69-6.78L186.69-6.78Q186.69-5.38 187.55-4.48L187.55-4.48L187.55-4.48Q188.42-3.58 189.70-3.46L189.70-3.46L189.70-3.46Q189.06-1.28 186.72 0L186.72 0L186.72 0Q184.38 1.28 181.76 1.28L181.76 1.28L181.76 1.28Q179.14 1.28 177.38 0.29L177.38 0.29L177.38 0.29Q175.62-0.70 175.10-2.37L175.10-2.37L175.10-2.37Q174.08-0.77 171.90 0.26L171.90 0.26L171.90 0.26Q169.73 1.28 166.82 1.28L166.82 1.28L166.82 1.28Q163.90 1.28 161.54 0.51L161.54 0.51L161.54 0.51Q159.17-0.26 157.66-1.92ZM171.17-27.90L171.17-27.90L171.17-27.90Q170.43-26.75 169.79-24.80L169.79-24.80L169.79-24.80Q169.15-22.85 168.10-17.63L168.10-17.63L168.10-17.63Q167.04-12.42 167.04-8.70L167.04-8.70L167.04-8.70Q167.04-4.99 167.62-3.90L167.62-3.90L167.62-3.90Q168.19-2.82 169.22-2.82L169.22-2.82L169.22-2.82Q171.26-2.82 172.77-4.77L172.77-4.77L172.77-4.77Q174.27-6.72 174.85-10.18L174.85-10.18L178.24-28.93L178.24-28.93Q176.90-30.08 175.33-30.08L175.33-30.08L175.33-30.08Q173.76-30.08 172.83-29.57L172.83-29.57L172.83-29.57Q171.90-29.06 171.17-27.90ZM214.98-33.92L214.98-33.92L214.98-33.92Q217.28-33.92 219.07-33.41L219.07-33.41L219.07-33.41Q219.14-33.66 219.26-34.37L219.26-34.37L219.58-36.35L219.58-36.35Q219.84-37.63 220.22-39.74L220.22-39.74L221.25-44.80L233.98-46.08L226.88-8.96L226.88-8.96Q226.82-8.58 226.82-7.94L226.82-7.94L226.82-6.91L226.82-6.91Q226.82-5.50 227.52-4.45L227.52-4.45L227.52-4.45Q228.22-3.39 229.38-3.39L229.38-3.39L229.38-3.39Q228.10-0.38 224.19 0.90L224.19 0.90L224.19 0.90Q222.85 1.28 220.96 1.28L220.96 1.28L220.96 1.28Q219.07 1.28 217.34 0.29L217.34 0.29L217.34 0.29Q215.62-0.70 215.10-2.37L215.10-2.37L215.10-2.37Q214.08-0.70 212.03 0.29L212.03 0.29L212.03 0.29Q209.98 1.28 207.01 1.28L207.01 1.28L207.01 1.28Q204.03 1.28 201.57 0.51L201.57 0.51L201.57 0.51Q199.10-0.26 197.57-1.92L197.57-1.92L197.57-1.92Q194.75-5.18 194.75-12.61L194.75-12.61L194.75-12.61Q194.75-22.21 200.38-28.03L200.38-28.03L200.38-28.03Q206.02-33.92 214.98-33.92ZM214.53-30.08L214.53-30.08L214.53-30.08Q212.16-30.08 210.88-27.52L210.88-27.52L210.88-27.52Q209.60-24.96 208.29-18.62L208.29-18.62L208.29-18.62Q206.98-12.29 206.98-6.59L206.98-6.59L206.98-6.59Q206.98-2.69 209.28-2.69L209.28-2.69L209.28-2.69Q211.33-2.69 212.77-4.74L212.77-4.74L212.77-4.74Q214.21-6.78 214.78-10.18L214.78-10.18L218.24-28.93L218.24-28.93Q216.90-30.08 214.53-30.08ZM260.74-10.82L260.74-10.82L260.74-10.82Q262.34-9.73 262.34-7.33L262.34-7.33L262.34-7.33Q262.34-4.93 261.12-3.39L261.12-3.39L261.12-3.39Q259.90-1.86 257.92-0.83L257.92-0.83L257.92-0.83Q253.82 1.28 249.41 1.28L249.41 1.28L249.41 1.28Q244.99 1.28 242.40 0.32L242.40 0.32L242.40 0.32Q239.81-0.64 238.08-2.43L238.08-2.43L238.08-2.43Q234.69-5.82 234.69-12.03L234.69-12.03L234.69-12.03Q234.69-21.70 239.94-27.58L239.94-27.58L239.94-27.58Q245.57-33.92 255.36-33.92L255.36-33.92L255.36-33.92Q261.44-33.92 264.45-31.36L264.45-31.36L264.45-31.36Q266.69-29.44 266.69-26.30L266.69-26.30L266.69-26.30Q266.69-15.04 247.23-15.04L247.23-15.04L247.23-15.04Q246.98-13.38 246.98-11.97L246.98-11.97L246.98-11.97Q246.98-9.02 248.29-7.90L248.29-7.90L248.29-7.90Q249.60-6.78 252.03-6.78L252.03-6.78L252.03-6.78Q254.46-6.78 257.06-7.90L257.06-7.90L257.06-7.90Q259.65-9.02 260.74-10.82ZM247.68-17.79L247.68-17.79L247.68-17.79Q252.22-17.79 254.85-20.61L254.85-20.61L254.85-20.61Q257.47-23.30 257.47-27.58L257.47-27.58L257.47-27.58Q257.47-29.06 256.93-29.86L256.93-29.86L256.93-29.86Q256.38-30.66 255.30-30.66L255.30-30.66L255.30-30.66Q254.21-30.66 253.28-30.24L253.28-30.24L253.28-30.24Q252.35-29.82 251.39-28.42L251.39-28.42L251.39-28.42Q249.02-25.22 247.68-17.79Z" fill="url(#editing-sticker-gradient)" stroke="#000" stroke-width="2.5"></path></g></g><style>text {
  font-size: 64px;
  font-family: Arial Black;
  dominant-baseline: central;
  text-anchor: middle;
}</style></svg>